<?xml version="1.0" encoding="UTF-8"?>
<svg version="1.1" xmlns="http://www.w3.org/2000/svg" width="256" height="256">
<path d="M0 0 C5.19217989 3.73877046 11.12522556 8.42137729 12.6875 14.8125 C10.99907907 22.64063342 1.92007638 29.24691905 -3.578125 34.78686523 C-4.82100281 36.04441872 -4.82100281 36.04441872 -6.08898926 37.32737732 C-8.80617857 40.07425582 -11.52741942 42.81705912 -14.25 45.55859375 C-14.71521561 46.02710668 -15.18043121 46.49561961 -15.65974426 46.9783299 C-20.0539528 51.40325575 -24.45018773 55.8261592 -28.85125732 60.24426174 C-34.45680873 65.87177782 -40.05201128 71.50916888 -45.63380814 77.16025013 C-49.57512259 81.14880645 -53.52786764 85.12580407 -57.48923874 89.09444004 C-59.84948194 91.4596306 -62.20269487 93.83088606 -64.54699707 96.21194267 C-67.15811453 98.86181735 -69.78737845 101.49229292 -72.421875 104.11889648 C-73.18987427 104.90689636 -73.95787354 105.69489624 -74.74914551 106.5067749 C-78.0958987 109.80866639 -80.2479577 111.77055667 -84.80627441 113.16127014 C-88.29585646 112.98506045 -89.26265074 112.72944565 -91.67773438 110.30078125 C-92.34957764 109.64803223 -93.0214209 108.9952832 -93.71362305 108.32275391 C-94.46812744 107.55624512 -95.22263184 106.78973633 -96 106 C-97.38796989 104.66649713 -98.77604328 103.33309992 -100.16605377 102.00172424 C-106.45195983 95.95152661 -112.62560519 89.7829049 -118.8203125 83.63964844 C-121.27863418 81.20374058 -123.7463832 78.77800596 -126.22265625 76.36035156 C-129.22999247 73.42401712 -132.21985416 70.4709186 -135.19804382 67.5050354 C-136.33078126 66.3826895 -137.46951351 65.26635967 -138.61433411 64.15634155 C-140.21091301 62.60590333 -141.78404838 61.03484366 -143.35351562 59.45703125 C-144.70298279 58.1263562 -144.70298279 58.1263562 -146.07971191 56.76879883 C-148.50325978 53.27436664 -148.45076056 51.1685694 -148 47 C-146.9777832 45.11962891 -146.9777832 45.11962891 -145.55078125 43.7265625 C-145.03193359 43.21222656 -144.51308594 42.69789062 -143.97851562 42.16796875 C-143.42873047 41.65878906 -142.87894531 41.14960937 -142.3125 40.625 C-141.78205078 40.09261719 -141.25160156 39.56023437 -140.70507812 39.01171875 C-137.67015761 36.08478927 -135.32552446 33.93012077 -131 34 C-127.4227555 35.88053225 -124.69131227 38.06314172 -121.85229492 40.9206543 C-121.07186325 41.70123703 -120.29143158 42.48181976 -119.48735046 43.28605652 C-118.6600795 44.12365005 -117.83280853 44.96124359 -116.98046875 45.82421875 C-116.12189774 46.68561966 -115.26332672 47.54702057 -114.3787384 48.43452454 C-111.64358794 51.18085012 -108.9154825 53.93405601 -106.1875 56.6875 C-104.33184071 58.55319251 -102.47572615 60.41843232 -100.61914062 62.28320312 C-96.07413556 66.85023321 -91.53489162 71.42292868 -87 76 C-84.0848094 74.6827901 -82.02312368 73.26903663 -79.77453613 71.00158691 C-79.16058487 70.38749466 -78.54663361 69.7734024 -77.91407776 69.14070129 C-77.25213913 68.46843002 -76.5902005 67.79615875 -75.90820312 67.10351562 C-75.20203354 66.39442551 -74.49586395 65.68533539 -73.76829529 64.95475769 C-72.23665068 63.41550594 -70.70732092 61.87394811 -69.18003845 60.33036804 C-66.76376544 57.88858081 -64.34131029 55.45308485 -61.91711426 53.01916504 C-56.7724761 47.8516612 -51.63569176 42.67639326 -46.5 37.5 C-40.54928449 31.50212375 -34.59541487 25.50745332 -28.63304138 19.52116394 C-26.24477754 17.11991901 -23.86260988 14.71273539 -21.48059082 12.30529785 C-20.01795582 10.83539845 -18.55503966 9.36577875 -17.09179688 7.89648438 C-16.42985825 7.2242131 -15.76791962 6.55194183 -15.08592224 5.85929871 C-14.16499535 4.93816032 -14.16499535 4.93816032 -13.22546387 3.99841309 C-12.69601921 3.46452721 -12.16657455 2.93064133 -11.62108612 2.38057709 C-7.70777697 -0.95214218 -4.93878566 -1.614603 0 0 Z " fill="#47B12B" transform="translate(196,72)"/>
</svg>
